<?xml version="1.0" standalone="no"?>
<!DOCTYPE svg PUBLIC "-//W3C//DTD SVG 20010904//EN"
 "http://www.w3.org/TR/2001/REC-SVG-20010904/DTD/svg10.dtd">
<svg version="1.0" xmlns="http://www.w3.org/2000/svg"
 width="50.000000pt" height="50.000000pt" viewBox="0 0 50.000000 50.000000"
 preserveAspectRatio="xMidYMid meet">

<g transform="translate(0.000000,50.000000) scale(0.100000,-0.100000)"
fill="#000000" stroke="none">
<path d="M45 490 c-24 -9 -50 -38 -42 -46 3 -3 19 4 35 16 17 12 34 20 39 17
5 -3 47 -101 93 -216 45 -116 87 -211 93 -211 20 0 227 83 227 92 0 13 -8 11
-119 -32 -57 -23 -105 -39 -106 -38 -1 2 -39 99 -85 216 -86 219 -88 222 -135
202z"/>
<path d="M265 459 c-55 -23 -102 -43 -104 -45 -5 -4 107 -294 118 -307 6 -5
201 65 220 79 5 5 -120 314 -128 313 -3 0 -51 -18 -106 -40z m124 -40 c11 -29
21 -57 21 -64 0 -6 -40 -27 -89 -47 l-89 -35 -25 64 -26 65 36 14 c92 39 129
53 139 53 6 1 21 -22 33 -50z m81 -213 c0 -15 -170 -81 -180 -70 -9 9 -51 117
-47 119 1 1 42 18 92 37 l90 36 22 -56 c13 -30 23 -60 23 -66z"/>
<path d="M278 423 c-35 -14 -51 -33 -29 -33 19 0 81 31 81 40 0 13 -6 12 -52
-7z"/>
<path d="M338 273 c-21 -9 -38 -20 -38 -24 0 -12 3 -12 50 7 22 9 40 20 40 25
0 12 -7 10 -52 -8z"/>
<path d="M156 84 c-31 -30 -9 -84 34 -84 24 0 50 26 50 50 0 24 -26 50 -50 50
-10 0 -26 -7 -34 -16z m59 -34 c0 -18 -6 -26 -23 -28 -24 -4 -38 18 -28 44 3
9 15 14 28 12 17 -2 23 -10 23 -28z"/>
</g>
</svg>
